<svg width="32" height="32" viewBox="0 0 32 32" fill="none" xmlns="http://www.w3.org/2000/svg">
<path d="M2.5 16.6566V10.6566H29.5V16.6566H2.5Z" fill="#9CE5E1"/>
<path d="M27.5 21.1566L4.5 18.1566V29.1566H27.5V21.1566Z" fill="#9CE5E1"/>
<path fill-rule="evenodd" clip-rule="evenodd" d="M14.9243 4.60468C16.3344 6.1384 17.0542 8.56546 16.4709 10.8991L16.3119 11.5352L12.5835 12.1564L12.5008 12.1564C9.54884 12.1565 7.39901 11.0248 6.68939 9.13253C5.97127 7.21756 6.9566 5.15054 8.94604 3.82433C10.0164 3.11082 11.1491 2.87356 12.2275 3.06205C13.2893 3.24761 14.2119 3.82976 14.9243 4.60468ZM11.8832 5.03218C11.3523 4.9394 10.735 5.03542 10.0554 5.48847C8.54478 6.49547 8.28013 7.67851 8.56205 8.43028C8.84937 9.19648 9.92936 10.1362 12.4199 10.1561L14.6436 9.78558C14.8075 8.32232 14.2961 6.87636 13.452 5.9583C12.9769 5.44156 12.4308 5.12789 11.8832 5.03218Z" fill="#9CE5E1"/>
<path fill-rule="evenodd" clip-rule="evenodd" d="M16.7497 4.60468C15.3397 6.1384 14.6198 8.56546 15.2032 10.8991L15.3622 11.5352L19.0906 12.1564L19.1733 12.1564C22.1252 12.1565 24.2751 11.0248 24.9847 9.13253C25.7028 7.21756 24.7175 5.15054 22.728 3.82433C21.6577 3.11082 20.525 2.87356 19.4465 3.06205C18.3848 3.24761 17.4622 3.82976 16.7497 4.60468ZM19.7909 5.03218C20.3218 4.9394 20.9391 5.03542 21.6187 5.48847C23.1293 6.49547 23.3939 7.67851 23.112 8.43028C22.8247 9.19648 21.7447 10.1362 19.2542 10.1561L17.0305 9.78558C16.8666 8.32232 17.378 6.87636 18.2221 5.9583C18.6971 5.44156 19.2433 5.12789 19.7909 5.03218Z" fill="#9CE5E1"/>
</svg>
