<svg width="36" height="12" viewBox="0 0 36 12" fill="none" xmlns="http://www.w3.org/2000/svg">
<path d="M13.738 3.94136V8.05408C13.738 9.23468 14.531 10.1916 15.5094 10.1916H23.2305C23.3127 10.1916 23.38 10.2728 23.38 10.372V11.8151C23.38 11.9143 23.3127 11.9954 23.2305 11.9954H15.4802C15.3218 11.9954 15.1693 11.9197 15.0572 11.7844L12.418 8.59973C12.3058 8.46445 12.2431 8.28046 12.2431 8.08925V3.90618C12.2431 3.71498 12.3058 3.53099 12.418 3.3957L15.0572 0.211047C15.1693 0.0757606 15.3218 0 15.4802 0H23.2305C23.3127 0 23.38 0.0811721 23.38 0.180382V1.62344C23.38 1.72265 23.3127 1.80382 23.2305 1.80382H15.5094C14.531 1.80382 13.738 2.76075 13.738 3.94136Z" fill="#112C41"/>
<path fill-rule="evenodd" clip-rule="evenodd" d="M32.7628 0.0045673H25.0126C24.9303 0.0045673 24.8631 0.0857394 24.8631 0.18495V11.8196C24.8631 11.9188 24.9303 12 25.0126 12H32.7628C32.9213 12 33.0738 11.9242 33.1859 11.789L35.8251 8.6043C35.9372 8.46901 36 8.28502 36 8.09382V3.91075C36 3.71954 35.9372 3.53555 35.8251 3.40027L33.1859 0.215615C33.0738 0.0803279 32.9213 0.0045673 32.7628 0.0045673ZM34.5051 8.05864C34.5051 9.23925 33.7121 10.1962 32.7337 10.1962H26.4327C26.3916 10.1962 26.358 10.1556 26.358 10.106V1.89858C26.358 1.84898 26.3916 1.80839 26.4327 1.80839H32.7337C33.7121 1.80839 34.5051 2.76532 34.5051 3.94592V8.05864Z" fill="#112C41"/>
<path d="M7.01333 11.8088L12.1565 0.137148H12.1558C12.1827 0.0767203 12.146 0.0045673 12.09 0.0045673H10.7005C10.5899 0.0045673 10.4882 0.0776222 10.4366 0.195773L7.07985 7.81242C6.64783 8.7937 6.42135 9.88862 6.42135 10.9998V11.0061C6.42135 11.0557 6.38772 11.0963 6.34661 11.0963H5.81966C5.77855 11.0963 5.74492 11.0557 5.74492 11.0061C5.74492 9.89494 5.51919 8.80002 5.08642 7.81874L1.7274 0.195773C1.67582 0.0785241 1.57417 0.0045673 1.46355 0.0045673H0.0747956C0.0187372 0.0045673 -0.0178876 0.0767203 0.00902044 0.137148L5.15219 11.8079C5.20377 11.926 5.30542 12 5.41604 12H6.74948C6.8601 12 6.96176 11.9269 7.01333 11.8088Z" fill="#112C41"/>
</svg>
