<svg width="616" height="170" viewBox="0 0 616 170" fill="none" xmlns="http://www.w3.org/2000/svg">
<path d="M234.983 56.0935V114.193C234.983 130.872 248.538 144.39 265.261 144.39H397.231C398.636 144.39 399.786 145.537 399.786 146.938V167.324C399.786 168.726 398.636 169.872 397.231 169.872H264.763C262.054 169.872 259.448 168.802 257.532 166.891L212.422 121.902C210.506 119.991 209.432 117.391 209.432 114.69V55.5966C209.432 52.8955 210.506 50.2963 212.422 48.3851L257.532 3.39599C259.448 1.48481 262.054 0.414551 264.763 0.414551H397.231C398.636 0.414551 399.786 1.56126 399.786 2.96279V23.3487C399.786 24.7502 398.636 25.8969 397.231 25.8969H265.261C248.538 25.8969 234.983 39.4153 234.983 56.0935Z" fill="#B1DEDB"/>
<path fill-rule="evenodd" clip-rule="evenodd" d="M560.158 0.479072H427.69C426.285 0.479072 425.135 1.62578 425.135 3.02731V167.389C425.135 168.79 426.285 169.937 427.69 169.937H560.158C562.867 169.937 565.473 168.867 567.389 166.955L612.499 121.966C614.416 120.055 615.489 117.456 615.489 114.755V55.6612C615.489 52.96 614.416 50.3608 612.499 48.4496L567.389 3.46051C565.473 1.54933 562.867 0.479072 560.158 0.479072ZM589.938 114.258C589.938 130.936 576.383 144.455 559.66 144.455H451.963C451.261 144.455 450.686 143.881 450.686 143.18V27.2356C450.686 26.5348 451.261 25.9615 451.963 25.9615H559.66C576.383 25.9615 589.938 39.4799 589.938 56.1581V114.258Z" fill="#B1DEDB"/>
<path d="M120.045 167.236L207.953 2.35203H207.94C208.4 1.49837 207.774 0.479072 206.816 0.479072H183.066C181.176 0.479072 179.438 1.51111 178.557 3.1802L121.182 110.78C113.798 124.642 109.927 140.11 109.927 155.807V155.896C109.927 156.597 109.352 157.17 108.65 157.17H99.6429C98.9402 157.17 98.3653 156.597 98.3653 155.896C98.3653 140.199 94.5071 124.731 87.1102 110.869L29.6974 3.1802C28.8159 1.52385 27.0785 0.479072 25.1877 0.479072H1.45096C0.492805 0.479072 -0.13319 1.49837 0.326725 2.35203L88.2344 167.223C89.1159 168.892 90.8534 169.937 92.7441 169.937H115.535C117.426 169.937 119.164 168.905 120.045 167.236Z" fill="#B1DEDB"/>
</svg>
