<svg width="610" height="776" viewBox="0 0 610 776" fill="none" xmlns="http://www.w3.org/2000/svg">
<g clip-path="url(#clip0_520_134)">
<path d="M610 20C610 8.95431 601.046 0 590 0H109.702C104.653 0 99.6868 1.27391 95.2618 3.70374L15.5602 47.4693C5.96384 52.7389 0 62.8176 0 73.7656L0 77H610V20Z" fill="#2E5B6E"/>
<path d="M0 77H610V626H0V77Z" fill="#2E5B6E"/>
<path d="M610 626H0L0 756C0 767.046 8.95431 776 20 776H394.211C399.26 776 404.226 774.726 408.651 772.296L594.44 670.276C604.036 665.007 610 654.928 610 643.98V626Z" fill="#2E5B6E"/>
</g>
<defs>
<clipPath id="clip0_520_134">
<rect width="610" height="776" fill="white"/>
</clipPath>
</defs>
</svg>
