<svg width="336" height="150" viewBox="0 0 336 150" fill="none" xmlns="http://www.w3.org/2000/svg">
<mask id="mask0_278_497" style="mask-type:alpha" maskUnits="userSpaceOnUse" x="0" y="0" width="336" height="150">
<path d="M336 0H0L0 130C0 141.046 8.9543 150 20 150H208.979C216.919 150 224.536 146.852 230.159 141.246L327.18 44.5244C332.827 38.8957 336 31.251 336 23.2784V0Z" fill="#2E5B6E"/>
</mask>
<g mask="url(#mask0_278_497)">
<path d="M130.337 40.2286V71.7714C130.337 80.8262 137.207 88.1654 145.683 88.1654H212.573C213.285 88.1654 213.868 88.788 213.868 89.5489V100.617C213.868 101.377 213.285 102 212.573 102H145.43C144.058 102 142.737 101.419 141.765 100.381L118.901 75.9564C117.93 74.9188 117.386 73.5077 117.386 72.0412V39.9588C117.386 38.4923 117.93 37.0812 118.901 36.0436L141.765 11.6186C142.737 10.5811 144.058 10 145.43 10H212.573C213.285 10 213.868 10.6226 213.868 11.3835V22.4511C213.868 23.212 213.285 23.8346 212.573 23.8346H145.683C137.207 23.8346 130.337 31.1738 130.337 40.2286Z" fill="#B1DEDB"/>
<path d="M295.956 10H228.813C228.101 10 227.518 10.6226 227.518 11.3835V100.617C227.518 101.377 228.101 102 228.813 102H295.956C297.328 102 298.649 101.419 299.621 100.381L322.485 75.9564C323.456 74.9188 324 73.5077 324 72.0412V39.9588C324 38.4923 323.456 37.0812 322.485 36.0436L299.621 11.6186C298.649 10.5811 297.328 10 295.956 10ZM311.049 71.7714C311.049 80.8262 304.179 88.1654 295.703 88.1654H241.116C240.76 88.1654 240.469 87.8541 240.469 87.4737V24.5263C240.469 24.1459 240.76 23.8346 241.116 23.8346H295.703C304.179 23.8346 311.049 31.1738 311.049 40.2286V71.7714Z" fill="#B1DEDB"/>
<path d="M117.315 11.0168L72.7581 100.534C72.3113 101.44 71.4306 102 70.4723 102H58.9204C57.962 102 57.0814 101.433 56.6346 100.527L12.0781 11.0168C11.845 10.5534 12.1623 10 12.648 10H24.6791C25.6374 10 26.518 10.5672 26.9648 11.4665L56.0648 69.9314C59.814 77.4574 61.7695 85.855 61.7695 94.3771C61.7695 94.7576 62.0609 95.0689 62.417 95.0689H66.9821C67.3383 95.0689 67.6296 94.7576 67.6296 94.3771V94.3287C67.6296 85.8066 69.5917 77.409 73.3344 69.883L102.415 11.4665C102.862 10.5603 103.742 10 104.701 10H116.738C117.224 10 117.541 10.5534 117.308 11.0168H117.315Z" fill="#B1DEDB"/>
</g>
</svg>
