<svg width="1100" height="257" viewBox="0 0 1100 257" fill="none" xmlns="http://www.w3.org/2000/svg">
<path d="M417.212 106.129V216.871C417.212 248.661 441.435 274.429 471.318 274.429H707.148C709.659 274.429 711.714 276.614 711.714 279.286V318.143C711.714 320.814 709.659 323 707.148 323H470.428C465.588 323 460.931 320.96 457.507 317.317L376.895 231.564C373.471 227.921 371.553 222.967 371.553 217.819V105.181C371.553 100.033 373.471 95.0786 376.895 91.4357L457.507 5.68286C460.931 2.04 465.588 0 470.428 0H707.148C709.659 0 711.714 2.18571 711.714 4.85714V43.7143C711.714 46.3857 709.659 48.5714 707.148 48.5714H471.318C441.435 48.5714 417.212 74.3386 417.212 106.129Z" fill="#B1DEDB"/>
<path d="M1001.13 0H764.406C761.894 0 759.84 2.18571 759.84 4.85714V318.143C759.84 320.814 761.894 323 764.406 323H904L922.5 316.5V319L967.5 280L1100 146.5V105.181C1100 100.033 1098.08 95.0786 1094.66 91.4357L1014.05 5.68286C1010.62 2.04 1005.97 0 1001.13 0ZM1054.5 192.5L967.5 280L834.5 257.5C834.5 257.5 805.499 258.836 805.499 257.5V51C805.499 49.6643 806.526 48.5714 807.782 48.5714H1000.23C1030.12 48.5714 1054.34 74.3386 1054.34 106.129L1054.5 192.5Z" fill="#B1DEDB"/>
<path d="M371.301 3.57L214.211 317.851C212.636 321.033 209.531 323 206.152 323H165.424C162.046 323 158.941 321.009 157.366 317.827L0.275515 3.57C-0.546348 1.94286 0.572299 0 2.28451 0H44.7018C48.0806 0 51.1854 1.99143 52.7606 5.14857L155.357 210.411C168.575 236.834 175.469 266.317 175.469 296.237C175.469 297.573 176.497 298.666 177.752 298.666H193.847C195.103 298.666 196.13 297.573 196.13 296.237V296.067C196.13 266.147 203.048 236.664 216.243 210.241L318.77 5.14857C320.346 1.96714 323.451 0 326.829 0H369.269C370.982 0 372.1 1.94286 371.278 3.57H371.301Z" fill="#B1DEDB"/>
</svg>
