<svg width="336" height="776" viewBox="0 0 336 776" fill="none" xmlns="http://www.w3.org/2000/svg">
<g clip-path="url(#clip0_520_134)">
<path d="M336 20C336 8.95431 327.046 0 316 0H68.5865C60.6461 0 53.0296 3.14798 47.4062 8.75401L8.81964 47.2213C3.17347 52.8501 0 60.4948 0 68.4673L0 77H336V20Z" fill="#2E5B6E"/>
<path d="M0 77H336V626H0V77Z" fill="#2E5B6E"/>
<path d="M336 626H0L0 756C0 767.046 8.9543 776 20 776H208.979C216.919 776 224.536 772.852 230.159 767.246L327.18 670.524C332.827 664.896 336 657.251 336 649.278V626Z" fill="#2E5B6E"/>
</g>
<defs>
<clipPath id="clip0_520_134">
<rect width="336" height="776" fill="white"/>
</clipPath>
</defs>
</svg>
