<svg width="616" height="170" viewBox="0 0 616 170" fill="none" xmlns="http://www.w3.org/2000/svg">
<path d="M235.204 56.0935V114.193C235.204 130.872 248.758 144.39 265.481 144.39H397.451C398.857 144.39 400.006 145.537 400.006 146.938V167.324C400.006 168.726 398.857 169.872 397.451 169.872H264.983C262.275 169.872 259.668 168.802 257.752 166.891L212.642 121.902C210.726 119.991 209.653 117.391 209.653 114.69V55.5966C209.653 52.8955 210.726 50.2963 212.642 48.3851L257.752 3.39599C259.668 1.48481 262.275 0.414551 264.983 0.414551H397.451C398.857 0.414551 400.006 1.56126 400.006 2.96279V23.3487C400.006 24.7502 398.857 25.8969 397.451 25.8969H265.481C248.758 25.8969 235.204 39.4153 235.204 56.0935Z" fill="#B1DEDB"/>
<path fill-rule="evenodd" clip-rule="evenodd" d="M560.379 0.479072H427.91C426.505 0.479072 425.355 1.62578 425.355 3.02731V167.389C425.355 168.79 426.505 169.937 427.91 169.937H560.379C563.087 169.937 565.693 168.867 567.61 166.955L612.72 121.966C614.636 120.055 615.709 117.456 615.709 114.755V55.6612C615.709 52.96 614.636 50.3608 612.72 48.4496L567.61 3.46051C565.693 1.54933 563.087 0.479072 560.379 0.479072ZM590.158 114.258C590.158 130.936 576.604 144.455 559.88 144.455H452.184C451.481 144.455 450.906 143.881 450.906 143.18V27.2356C450.906 26.5348 451.481 25.9615 452.184 25.9615H559.88C576.604 25.9615 590.158 39.4799 590.158 56.1581V114.258Z" fill="#B1DEDB"/>
<path d="M120.265 167.236L208.173 2.35203H208.16C208.62 1.49837 207.994 0.479072 207.036 0.479072H183.287C181.396 0.479072 179.658 1.51111 178.777 3.1802L121.402 110.78C114.018 124.642 110.147 140.11 110.147 155.807V155.896C110.147 156.597 109.572 157.17 108.87 157.17H99.8631C99.1605 157.17 98.5856 156.597 98.5856 155.896C98.5856 140.199 94.7274 124.731 87.3304 110.869L29.9177 3.1802C29.0362 1.52385 27.2987 0.479072 25.408 0.479072H1.67124C0.713081 0.479072 0.0870854 1.49837 0.547001 2.35203L88.4547 167.223C89.3362 168.892 91.0736 169.937 92.9644 169.937H115.756C117.647 169.937 119.384 168.905 120.265 167.236Z" fill="#B1DEDB"/>
</svg>
