<svg width="88" height="24" viewBox="0 0 88 24" fill="none" xmlns="http://www.w3.org/2000/svg">
<g clip-path="url(#clip0_278_185)">
<path d="M33.377 7.88572V16.1143C33.377 18.4764 35.3148 20.391 37.7055 20.391H56.5718C56.7727 20.391 56.9371 20.5534 56.9371 20.7519V23.6391C56.9371 23.8376 56.7727 24 56.5718 24H37.6342C37.2471 24 36.8745 23.8484 36.6005 23.5777L30.1516 17.206C29.8777 16.9353 29.7243 16.5672 29.7243 16.1847V7.81534C29.7243 7.43278 29.8777 7.06466 30.1516 6.79399L36.6005 0.422256C36.8745 0.151579 37.2471 0 37.6342 0H56.5718C56.7727 0 56.9371 0.162406 56.9371 0.360902V3.24812C56.9371 3.44662 56.7727 3.60902 56.5718 3.60902H37.7055C35.3148 3.60902 33.377 5.52361 33.377 7.88572Z" fill="#B1DEDB"/>
<path d="M80.09 0H61.1525C60.9516 0 60.7872 0.162406 60.7872 0.360902V23.6391C60.7872 23.8376 60.9516 24 61.1525 24H80.09C80.4772 24 80.8498 23.8484 81.1237 23.5777L87.5726 17.206C87.8466 16.9353 88 16.5672 88 16.1847V7.81534C88 7.43278 87.8466 7.06466 87.5726 6.79399L81.1237 0.422256C80.8498 0.151579 80.4772 0 80.09 0ZM84.3473 16.1143C84.3473 18.4764 82.4095 20.391 80.0188 20.391H64.6226C64.5221 20.391 64.4399 20.3098 64.4399 20.2105V3.78947C64.4399 3.69023 64.5221 3.60902 64.6226 3.60902H80.0188C82.4095 3.60902 84.3473 5.52361 84.3473 7.88572V16.1143Z" fill="#B1DEDB"/>
<path d="M29.7041 0.265263L17.1369 23.6174C17.0109 23.8538 16.7625 24 16.4922 24H13.234C12.9637 24 12.7153 23.852 12.5892 23.6156L0.0220412 0.265263C-0.0437079 0.144361 0.0457839 0 0.182761 0H3.57614C3.84645 0 4.09483 0.14797 4.22085 0.382556L12.4285 15.6343C13.486 17.5976 14.0376 19.7883 14.0376 22.0114C14.0376 22.1107 14.1197 22.1919 14.2202 22.1919H15.5078C15.6082 22.1919 15.6904 22.1107 15.6904 22.0114V21.9988C15.6904 19.7756 16.2438 17.585 17.2994 15.6217L25.5016 0.382556C25.6277 0.146165 25.876 0 26.1463 0H29.5416C29.6785 0 29.768 0.144361 29.7023 0.265263H29.7041Z" fill="#B1DEDB"/>
</g>
<defs>
<clipPath id="clip0_278_185">
<rect width="88" height="24" fill="white"/>
</clipPath>
</defs>
</svg>
