<svg width="30" height="30" viewBox="0 0 30 30" fill="none" xmlns="http://www.w3.org/2000/svg">
<path d="M15.4839 26L15.2419 21.2888C15.2384 21.2114 15.2521 21.1341 15.2819 21.0626C15.3117 20.9912 15.3568 20.9275 15.4141 20.8762C15.4714 20.8249 15.5392 20.7872 15.6127 20.766C15.6862 20.7449 15.7634 20.7407 15.8387 20.7538L20.457 21.5782L19.8333 19.8313C19.808 19.7618 19.8048 19.6859 19.8241 19.6145C19.8434 19.543 19.8842 19.4795 19.9409 19.4328L25 15.273L23.8602 14.7325C23.7832 14.6956 23.7222 14.6314 23.6885 14.552C23.6549 14.4726 23.6509 14.3834 23.6774 14.3012L24.6774 11.1787L21.7634 11.8064C21.6845 11.8232 21.6023 11.8116 21.5308 11.7738C21.4592 11.736 21.4028 11.6743 21.371 11.599L20.8065 10.2506L18.5323 12.729C18.4803 12.7847 18.4119 12.8218 18.3374 12.8347C18.2629 12.8476 18.1862 12.8356 18.119 12.8005C18.0518 12.7655 17.9976 12.7093 17.9645 12.6403C17.9314 12.5713 17.9212 12.4932 17.9355 12.4179L19.0323 6.67494L17.2742 7.7067C17.2329 7.73126 17.1871 7.74696 17.1396 7.75282C17.0921 7.75867 17.044 7.75457 16.9981 7.74075C16.9522 7.72693 16.9096 7.70369 16.873 7.67248C16.8363 7.64127 16.8063 7.60275 16.7849 7.5593L15 4L13.2151 7.5593C13.1937 7.60275 13.1637 7.64127 13.127 7.67248C13.0904 7.70369 13.0478 7.72693 13.0019 7.74075C12.956 7.75457 12.9079 7.75867 12.8604 7.75282C12.8129 7.74696 12.7671 7.73126 12.7258 7.7067L10.9677 6.67494L12.0645 12.4179C12.0788 12.4932 12.0686 12.5713 12.0355 12.6403C12.0024 12.7093 11.9482 12.7655 11.881 12.8005C11.8137 12.8356 11.7371 12.8476 11.6626 12.8347C11.5881 12.8218 11.5197 12.7847 11.4677 12.729L9.19355 10.2506L8.62903 11.599C8.59723 11.6743 8.54078 11.736 8.46925 11.7738C8.39771 11.8116 8.31551 11.8232 8.23656 11.8064L5.32258 11.1787L6.32258 14.3012C6.34908 14.3834 6.34513 14.4726 6.31147 14.552C6.27782 14.6314 6.21676 14.6956 6.13978 14.7325L5 15.273L10.0591 19.4328C10.1158 19.4795 10.1566 19.543 10.1759 19.6145C10.1952 19.6859 10.192 19.7618 10.1667 19.8313L9.54301 21.5782L14.1613 20.7538C14.2366 20.7407 14.3138 20.7449 14.3873 20.766C14.4608 20.7872 14.5286 20.8249 14.5859 20.8762C14.6432 20.9275 14.6883 20.9912 14.7181 21.0626C14.7479 21.1341 14.7616 21.2114 14.7581 21.2888L14.5161 26H15.4839Z" fill="#D56868"/>
</svg>
