<svg width="60" height="60" viewBox="0 0 60 60" fill="none" xmlns="http://www.w3.org/2000/svg">
<path d="M15.386 17C13.1014 17 10.9105 18.0487 9.29505 19.9154L4.02297 26.0076C2.40754 27.8743 1.5 30.4061 1.5 33.0461C1.5 38.5435 5.3566 43 10.114 43C12.3985 43 14.5895 41.9512 16.2049 40.0845L19.8517 35.8705C19.8517 35.8706 19.8517 35.8705 19.8517 35.8705L30.477 23.5924C31.2485 22.7009 32.2949 22.2 33.386 22.2C35.2127 22.2 36.7614 23.5758 37.2983 25.4795L40.6516 21.6046C39.1219 18.8359 36.4395 17 33.386 17C31.1014 17 28.9105 18.0487 27.295 19.9154L13.023 36.4076C12.2515 37.2992 11.2051 37.8 10.114 37.8C7.84188 37.8 6 35.6716 6 33.0461C6 31.7852 6.43343 30.5761 7.20495 29.6845L12.477 23.5924C13.2485 22.7009 14.2949 22.2 15.386 22.2C17.2128 22.2 18.7614 23.5758 19.2983 25.4796L22.6517 21.6047C21.1219 18.8359 18.4396 17 15.386 17Z" fill="#394149"/>
<path d="M31.0235 36.4076C30.2519 37.2992 29.2055 37.8 28.1144 37.8C26.288 37.8 24.7394 36.4246 24.2024 34.5211L20.8491 38.396C22.379 41.1643 25.0612 43 28.1144 43C30.399 43 32.59 41.9512 34.2054 40.0845L48.4775 23.5924C49.249 22.7009 50.2954 22.2 51.3865 22.2C53.6586 22.2 55.5005 24.3284 55.5005 26.9539C55.5005 28.2148 55.067 29.4239 54.2955 30.3155L49.0235 36.4076C48.2519 37.2992 47.2055 37.8 46.1144 37.8C44.2878 37.8 42.7392 36.4243 42.2022 34.5207L38.849 38.3957C40.3787 41.1642 43.061 43 46.1144 43C48.399 43 50.59 41.9512 52.2054 40.0845L57.4775 33.9924C59.0929 32.1257 60.0005 29.5939 60.0005 26.9539C60.0005 21.4565 56.1439 17 51.3865 17C49.1019 17 46.9109 18.0487 45.2955 19.9154L31.0235 36.4076Z" fill="#394149"/>
</svg>
